<svg id="svg" version="1.1" xmlns="http://www.w3.org/2000/svg"
    xmlns:xlink="http://www.w3.org/1999/xlink"
    viewBox="0, 0, 400,395.5357142857143" width="40px" height="40px">
    <g id="svgg">
        <path id="path0"
            d="M189.911 34.632 C 182.729 35.158,177.681 35.735,174.283 36.420 C 173.195 36.640,171.325 37.017,170.129 37.258 C 166.828 37.925,157.006 40.313,155.885 40.721 C 155.341 40.919,153.561 41.556,151.929 42.137 C 133.472 48.702,116.755 58.726,103.660 71.079 C 102.463 72.208,101.016 73.497,100.445 73.945 C 98.236 75.673,87.276 88.668,83.822 93.654 C 24.554 179.197,72.823 297.438,175.272 317.673 C 181.392 318.882,182.244 319.011,189.911 319.892 C 207.256 321.883,214.825 318.033,214.825 307.221 C 214.825 298.036,209.699 294.222,196.835 293.835 C 184.473 293.463,171.905 291.451,160.237 287.975 C 157.805 287.251,150.832 284.491,147.345 282.872 C 145.488 282.011,143.913 281.306,143.845 281.306 C 142.936 281.306,130.915 273.728,125.420 269.691 C 100.236 251.189,82.110 221.806,77.181 191.494 C 76.131 185.035,75.941 183.338,75.510 176.566 C 72.875 135.105,92.343 93.387,126.278 67.776 C 182.758 25.151,263.916 36.130,308.225 92.389 C 312.291 97.551,318.101 106.001,318.101 106.753 C 318.101 107.010,318.279 107.221,318.497 107.221 C 318.714 107.221,318.892 107.392,318.892 107.602 C 318.892 107.813,319.426 108.827,320.079 109.856 C 320.960 111.245,321.266 111.512,321.266 110.892 C 321.266 110.432,321.133 109.997,320.969 109.924 C 320.806 109.852,319.871 108.199,318.892 106.252 C 308.707 86.001,287.352 63.942,267.279 52.938 C 257.677 47.675,247.424 43.080,240.950 41.140 C 239.318 40.651,237.181 39.995,236.202 39.681 C 230.542 37.867,222.834 36.256,214.837 35.215 C 212.057 34.853,198.733 33.985,197.428 34.081 C 197.102 34.105,193.719 34.353,189.911 34.632 M195.413 75.927 C 192.068 76.605,187.885 79.871,186.622 82.790 C 185.306 85.830,185.163 86.410,185.163 88.697 C 185.163 94.083,188.118 98.830,192.744 100.873 C 195.027 101.881,195.880 101.977,206.963 102.480 C 252.447 104.542,294.469 132.428,312.776 172.700 C 313.370 174.006,314.366 176.191,314.989 177.557 C 315.613 178.922,316.123 180.170,316.123 180.329 C 316.123 180.488,316.715 182.131,317.438 183.979 C 325.038 203.389,326.883 231.119,322.027 252.950 C 304.653 331.062,222.057 374.610,147.181 345.137 C 124.928 336.377,101.496 318.187,88.911 299.901 C 87.231 297.459,83.071 291.154,81.525 288.705 C 79.013 284.729,79.115 285.790,81.713 290.679 C 104.171 332.934,147.927 359.786,197.626 361.812 C 205.487 362.133,219.013 361.249,224.926 360.029 C 226.014 359.804,227.883 359.430,229.080 359.197 C 259.999 353.183,290.445 335.090,309.594 311.350 C 325.609 291.497,335.553 270.053,339.857 246.093 C 348.985 195.279,329.858 142.639,290.406 109.995 C 288.773 108.645,286.966 107.126,286.388 106.620 C 280.203 101.199,264.301 91.760,254.797 87.867 C 252.512 86.932,249.753 85.763,248.665 85.270 C 244.255 83.274,234.852 80.628,225.519 78.757 C 220.181 77.687,217.769 77.312,210.089 76.361 C 205.914 75.844,197.108 75.584,195.413 75.927 "
            stroke="none" fill="#0bf5dd" fill-rule="evenodd"></path>
        <path id="p-letter"
            d="M179.926 148.931 C 176.485 149.707,172.502 152.831,172.502 154.755 C 172.502 155.072,172.280
            155.554,172.008 155.826 C 171.485 156.349,171.005 239.703,171.509 242.433 C 172.038
            245.295,180.221 243.477,182.355 240.023 C 184.200 237.038,184.363 235.598,184.368 222.281 C
            184.370 215.386,184.535 209.315,184.735 208.789 L 185.098 207.834 197.693 207.605 C
            211.182 207.359,212.908 207.144,218.595 205.000 C 221.442 203.927,226.439 200.873,227.504 199.556 C
            232.810 192.991,234.367 188.168,234.386 178.239 C 234.417 161.014,226.555 151.425,210.485
            149.091 C 205.905 148.426,182.708 148.305,179.926 148.931 M206.762 159.992 C 217.412
            161.591,221.902 168.169,220.972 180.811 C 220.042 193.453,215.576 196.334,196.566 196.554 L
            184.824 196.689 184.572 194.982 C 184.434 194.042,184.377 186.092,184.445 177.315 L 184.570
            161.355 185.680 160.401 C 187.028 159.242,200.082 158.989,206.762 159.992 "
            stroke="none" fill="#f5f6f6" fill-rule="evenodd"></path>
    </g>
</svg>