<svg id="svg" version="1.1" xmlns="http://www.w3.org/2000/svg"
    xmlns:xlink="http://www.w3.org/1999/xlink"
    viewBox="0, 0, 400,395.5357142857143" width="400" height="395.5357142857143">
    <defs>
        <style>
            @keyframes flipAnimation {
            0% { transform: rotateY(0deg); }
            50% { transform: rotateY(180deg); }
            100% { transform: rotateY(360deg); }
            }

            #p-letter {
            transform-origin: center;
            transform-box: fill-box;
            transform-style: preserve-3d;
            backface-visibility: visible;
            animation: flipAnimation 3s ease-in-out infinite;
            }
        </style>
    </defs>
    <g id="svgg">
        <path id="path0"
            d="M189.911 34.632 C 182.729 35.158,177.681 35.735,174.283 36.420 C 173.195 36.640,171.325 37.017,170.129 37.258 C 166.828 37.925,157.006 40.313,155.885 40.721 C 155.341 40.919,153.561 41.556,151.929 42.137 C 133.472 48.702,116.755 58.726,103.660 71.079 C 102.463 72.208,101.016 73.497,100.445 73.945 C 98.236 75.673,87.276 88.668,83.822 93.654 C 24.554 179.197,72.823 297.438,175.272 317.673 C 181.392 318.882,182.244 319.011,189.911 319.892 C 207.256 321.883,214.825 318.033,214.825 307.221 C 214.825 298.036,209.699 294.222,196.835 293.835 C 184.473 293.463,171.905 291.451,160.237 287.975 C 157.805 287.251,150.832 284.491,147.345 282.872 C 145.488 282.011,143.913 281.306,143.845 281.306 C 142.936 281.306,130.915 273.728,125.420 269.691 C 100.236 251.189,82.110 221.806,77.181 191.494 C 76.131 185.035,75.941 183.338,75.510 176.566 C 72.875 135.105,92.343 93.387,126.278 67.776 C 182.758 25.151,263.916 36.130,308.225 92.389 C 312.291 97.551,318.101 106.001,318.101 106.753 C 318.101 107.010,318.279 107.221,318.497 107.221 C 318.714 107.221,318.892 107.392,318.892 107.602 C 318.892 107.813,319.426 108.827,320.079 109.856 C 320.960 111.245,321.266 111.512,321.266 110.892 C 321.266 110.432,321.133 109.997,320.969 109.924 C 320.806 109.852,319.871 108.199,318.892 106.252 C 308.707 86.001,287.352 63.942,267.279 52.938 C 257.677 47.675,247.424 43.080,240.950 41.140 C 239.318 40.651,237.181 39.995,236.202 39.681 C 230.542 37.867,222.834 36.256,214.837 35.215 C 212.057 34.853,198.733 33.985,197.428 34.081 C 197.102 34.105,193.719 34.353,189.911 34.632 M195.413 75.927 C 192.068 76.605,187.885 79.871,186.622 82.790 C 185.306 85.830,185.163 86.410,185.163 88.697 C 185.163 94.083,188.118 98.830,192.744 100.873 C 195.027 101.881,195.880 101.977,206.963 102.480 C 252.447 104.542,294.469 132.428,312.776 172.700 C 313.370 174.006,314.366 176.191,314.989 177.557 C 315.613 178.922,316.123 180.170,316.123 180.329 C 316.123 180.488,316.715 182.131,317.438 183.979 C 325.038 203.389,326.883 231.119,322.027 252.950 C 304.653 331.062,222.057 374.610,147.181 345.137 C 124.928 336.377,101.496 318.187,88.911 299.901 C 87.231 297.459,83.071 291.154,81.525 288.705 C 79.013 284.729,79.115 285.790,81.713 290.679 C 104.171 332.934,147.927 359.786,197.626 361.812 C 205.487 362.133,219.013 361.249,224.926 360.029 C 226.014 359.804,227.883 359.430,229.080 359.197 C 259.999 353.183,290.445 335.090,309.594 311.350 C 325.609 291.497,335.553 270.053,339.857 246.093 C 348.985 195.279,329.858 142.639,290.406 109.995 C 288.773 108.645,286.966 107.126,286.388 106.620 C 280.203 101.199,264.301 91.760,254.797 87.867 C 252.512 86.932,249.753 85.763,248.665 85.270 C 244.255 83.274,234.852 80.628,225.519 78.757 C 220.181 77.687,217.769 77.312,210.089 76.361 C 205.914 75.844,197.108 75.584,195.413 75.927 "
            stroke="none" fill="#0bf5dd" fill-rule="evenodd"></path>
        <path id="path1"
            d="M0.000 197.824 L 0.000 395.648 200.000 395.648 L 400.000 395.648 400.000 197.824 L 400.000 0.000
        200.000 0.000 L 0.000 0.000 0.000 197.824 M212.661 33.823 C 266.276 39.364,313.935
        77.963,329.422 128.388 C 332.615 138.786,332.031 140.873,328.591 131.355 C 328.002
        129.723,327.169 127.609,326.741 126.657 C 326.313 125.705,325.639 124.103,325.242 123.096 C
        323.213 117.952,316.613 105.680,313.405 101.088 C 311.895 98.927,307.736 93.294,307.417
        92.977 C 307.307 92.868,306.157 91.444,304.862 89.812 C 299.976 83.656,287.711
        72.267,280.364 67.062 C 279.749 66.627,278.782 65.915,278.215 65.480 C 271.518
        60.341,251.675 51.042,241.345 48.202 C 234.241 46.248,225.600 44.458,220.376 43.858 C
        211.695 42.861,195.608 42.851,188.328 43.839 C 183.712 44.465,175.688 45.908,173.393 46.524
        C 172.250 46.831,170.292 47.356,169.041 47.691 C 160.827 49.890,146.137 56.086,140.166
        59.869 C 139.246 60.453,138.390 60.930,138.264 60.930 C 137.570 60.930,125.938
        69.098,122.488 72.008 C 62.168 122.891,60.750 212.130,119.444 263.683 C 124.540
        268.160,142.972 280.514,144.554 280.514 C 144.653 280.514,146.412 281.298,148.462 282.256 C
        150.512 283.214,152.977 284.269,153.939 284.601 C 154.900 284.933,156.869 285.653,158.314
        286.202 C 167.382 289.648,182.551 292.231,196.637 292.726 C 206.117 293.060,207.649
        293.498,211.215 296.896 C 218.388 303.733,216.666 315.783,207.890 320.166 C 199.689
        324.262,166.005 318.830,147.972 310.504 C 146.558 309.851,144.243 308.859,142.829 308.301 C
        134.214 304.897,117.282 294.247,110.184 287.769 C 109.746 287.369,108.500 286.350,107.414
        285.504 C 98.297 278.399,84.249 261.462,76.531 248.269 C 43.351 191.555,53.125
        118.322,99.901 73.171 C 122.923 50.948,153.091 36.774,183.185 34.041 C 185.687
        33.814,188.358 33.568,189.120 33.494 C 193.109 33.110,207.742 33.314,212.661 33.823 M205.341
        74.985 C 226.932 76.211,249.566 82.817,267.980 93.265 C 270.770 94.847,273.135
        96.142,273.237 96.142 C 273.515 96.142,286.365 105.166,287.575 106.211 C 288.153
        106.709,290.495 108.723,292.779 110.685 C 298.698 115.769,307.442 124.853,311.771 130.417 C
        312.097 130.837,312.997 131.976,313.771 132.949 C 319.642 140.332,327.462 153.800,331.682
        163.798 C 361.376 234.144,332.268 314.183,264.616 348.214 C 261.203 349.931,258.315
        351.335,258.197 351.335 C 258.079 351.335,256.776 351.889,255.302 352.566 C 252.044
        354.062,245.295 356.313,238.378 358.210 C 197.213 369.502,152.285 360.865,118.540 335.174 C
        98.585 319.981,81.121 296.731,73.025 274.580 C 70.425 267.464,70.600 268.016,69.244 262.710
        C 68.994 261.731,68.623 260.383,68.420 259.715 C 67.876 257.921,67.951 257.157,68.645
        257.424 C 68.971 257.549,69.238 257.893,69.238 258.189 C 69.238 258.485,69.494
        259.312,69.807 260.026 C 70.120 260.741,70.846 262.661,71.420 264.293 C 79.421
        287.026,95.698 310.485,112.372 323.314 C 113.129 323.897,114.728 325.139,115.925 326.076 C
        128.322 335.773,145.101 344.122,161.029 348.519 C 162.008 348.789,163.292 349.159,163.881
        349.341 C 164.804 349.626,171.590 350.952,178.239 352.147 C 184.702 353.309,209.438
        353.402,211.349 352.272 C 211.499 352.183,212.834 351.944,214.317 351.740 C 221.295
        350.780,226.331 349.781,230.465 348.539 C 233.121 347.741,240.409 345.341,241.147 345.021 C
        241.583 344.832,243.363 344.109,245.104 343.413 C 275.843 331.130,301.270 305.502,314.772
        273.195 C 323.725 251.773,326.123 222.354,320.788 199.407 C 318.839 191.025,315.938
        182.168,313.272 176.459 C 312.612 175.045,311.805 173.264,311.479 172.502 C 310.516
        170.252,306.142 162.715,303.328 158.457 C 283.769 128.861,254.181 109.951,218.793 104.431 C
        217.379 104.210,211.414 103.792,205.539 103.502 C 193.220 102.895,192.006 102.577,188.581
        99.070 C 179.335 89.600,186.603 73.475,199.604 74.611 C 200.475 74.687,203.056
        74.855,205.341 74.985 M209.713 148.142 C 222.360 149.951,228.958 154.678,233.408 165.117 C
        233.857 166.169,234.224 167.471,234.224 168.011 C 234.224 168.552,234.414 169.349,234.646
        169.783 C 235.192 170.804,235.217 185.073,234.676 186.830 C 234.455 187.545,234.070
        188.915,233.819 189.874 C 232.223 195.980,226.992 202.368,221.563 204.838 C 214.676
        207.971,208.262 208.902,193.552 208.902 L 185.163 208.902 185.163 222.086 C 185.163
        240.858,183.851 243.819,175.267 244.407 C 169.948 244.771,170.523 249.946,170.532 201.818 C
        170.542 151.051,170.409 152.184,176.685 149.146 C 180.022 147.530,200.983 146.893,209.713
        148.142 M186.445 161.027 L 185.155 161.814 185.258 178.731 L 185.361 195.648 196.241 195.587
        C 216.053 195.475,220.133 192.513,220.133 178.239 C 220.133 168.397,217.585 164.205,209.891
        161.390 C 206.337 160.090,188.437 159.812,186.445 161.027 "
            stroke="none" fill="#0f0f1a" fill-rule="evenodd"></path>
        <g id="p-letter">
            <path id="path2"
                d="M179.926 148.931 C 176.485 149.707,172.502 152.831,172.502 154.755 C 172.502 155.072,172.280
        155.554,172.008 155.826 C 171.485 156.349,171.005 239.703,171.509 242.433 C 172.038
        245.295,180.221 243.477,182.355 240.023 C 184.200 237.038,184.363 235.598,184.368 222.281 C
        184.370 215.386,184.535 209.315,184.735 208.789 L 185.098 207.834 197.693 207.605 C 211.182
        207.359,212.908 207.144,218.595 205.000 C 221.442 203.927,226.439 200.873,227.504 199.556 C
        232.810 192.991,234.367 188.168,234.386 178.239 C 234.417 161.014,226.555 151.425,210.485
        149.091 C 205.905 148.426,182.708 148.305,179.926 148.931 M206.762 159.992 C 217.412
        161.591,221.902 168.169,220.972 180.811 C 220.042 193.453,215.576 196.334,196.566 196.554 L
        184.824 196.689 184.572 194.982 C 184.434 194.042,184.377 186.092,184.445 177.315 L 184.570
        161.355 185.680 160.401 C 187.028 159.242,200.082 158.989,206.762 159.992 "
                stroke="none" fill="#f5f6f6" fill-rule="evenodd"></path>
        </g>
        <path id="path3"
            d="M189.120 33.494 C 188.358 33.568,185.687 33.814,183.185 34.041 C 157.139 36.406,129.341
        48.053,109.001 65.123 C 99.992 72.684,96.472 76.220,89.353 84.866 C 60.428 119.996,50.320
        164.946,61.151 210.287 C 67.782 238.044,87.360 269.876,107.414 285.504 C 108.500
        286.350,109.746 287.369,110.184 287.769 C 117.282 294.247,134.214 304.897,142.829 308.301 C
        144.243 308.859,146.558 309.851,147.972 310.504 C 166.005 318.830,199.689 324.262,207.890
        320.166 C 210.724 318.751,215.274 313.240,215.218 311.289 C 215.210 311.010,214.731
        311.758,214.154 312.952 C 209.881 321.791,199.757 323.166,175.074 318.258 C 93.636
        302.066,41.559 220.317,61.745 140.359 C 84.612 49.785,186.587 6.297,267.656 52.547 C 293.465
        67.272,318.276 96.308,326.398 121.293 C 327.773 125.523,327.944 127.242,326.730 124.629 C
        304.762 77.362,267.852 49.145,220.376 43.322 C 112.596 30.104,37.244 148.465,96.324 238.180
        C 118.861 272.402,152.496 290.944,196.394 293.345 C 207.952 293.977,209.707 294.641,213.087
        299.660 C 214.475 301.721,214.882 301.886,213.878 299.980 C 211.187 294.873,206.948
        293.089,196.637 292.726 C 182.551 292.231,167.382 289.648,158.314 286.202 C 156.869
        285.653,154.900 284.933,153.939 284.601 C 152.977 284.269,150.512 283.214,148.462 282.256 C
        146.412 281.298,144.653 280.514,144.554 280.514 C 144.455 280.514,142.914 279.682,141.129
        278.664 C 115.836 264.241,97.897 244.761,86.906 219.782 C 64.348 168.519,78.691
        108.953,122.488 72.008 C 125.938 69.098,137.570 60.930,138.264 60.930 C 138.390
        60.930,139.246 60.453,140.166 59.869 C 146.137 56.086,160.827 49.890,169.041 47.691 C
        170.292 47.356,172.250 46.831,173.393 46.524 C 175.688 45.908,183.712 44.465,188.328 43.839
        C 195.608 42.851,211.695 42.861,220.376 43.858 C 224.754 44.361,226.861 44.761,235.410
        46.714 C 241.419 48.087,246.016 49.562,252.819 52.300 C 262.355 56.138,273.741
        62.047,278.215 65.480 C 278.782 65.915,279.749 66.627,280.364 67.062 C 287.711
        72.267,299.976 83.656,304.862 89.812 C 306.157 91.444,307.307 92.868,307.417 92.977 C
        307.736 93.294,311.895 98.927,313.405 101.088 C 316.613 105.680,323.213 117.952,325.242
        123.096 C 325.639 124.103,326.313 125.705,326.741 126.657 C 327.169 127.609,328.002
        129.723,328.591 131.355 C 331.166 138.481,332.465 139.429,330.758 132.938 C 325.191
        111.762,312.537 90.302,295.542 73.212 C 268.481 46.000,225.568 29.984,189.120 33.494
        M195.988 74.774 C 189.539 75.732,184.671 81.535,184.535 88.427 L 184.465 91.988 184.718
        88.625 C 185.419 79.309,190.387 75.332,201.187 75.436 C 217.637 75.595,236.878
        79.732,253.017 86.579 C 319.904 114.957,356.157 187.168,338.242 256.333 C 314.098
        349.542,206.266 392.082,126.229 339.973 C 102.996 324.847,81.035 297.324,73.414 273.781 C
        72.099 269.719,72.270 268.969,73.759 272.268 C 85.126 297.443,100.369 316.191,121.068
        330.454 C 186.708 375.683,276.588 352.758,311.346 281.920 C 351.302 200.488,295.066
        106.041,204.748 102.891 C 192.796 102.474,190.436 101.614,186.924 96.399 C 185.474
        94.247,185.192 94.098,186.132 95.983 C 188.907 101.543,192.274 102.848,205.539 103.502 C
        250.469 105.720,286.237 127.715,308.415 166.766 C 309.774 169.159,311.153 171.741,311.479
        172.502 C 311.805 173.264,312.612 175.045,313.272 176.459 C 315.938 182.168,318.839
        191.025,320.788 199.407 C 325.701 220.538,324.195 246.362,316.806 267.656 C 305.070
        301.480,277.715 330.382,245.104 343.413 C 243.363 344.109,241.583 344.832,241.147 345.021 C
        240.409 345.341,233.121 347.741,230.465 348.539 C 226.331 349.781,221.295 350.780,214.317
        351.740 C 212.834 351.944,211.499 352.183,211.349 352.272 C 209.438 353.402,184.702
        353.309,178.239 352.147 C 171.590 350.952,164.804 349.626,163.881 349.341 C 163.292
        349.159,162.008 348.789,161.029 348.519 C 145.101 344.122,128.322 335.773,115.925 326.076 C
        114.728 325.139,113.129 323.897,112.372 323.314 C 95.698 310.485,79.421 287.026,71.420
        264.293 C 70.846 262.661,70.120 260.741,69.807 260.026 C 69.494 259.312,69.238
        258.485,69.238 258.189 C 69.238 257.893,68.971 257.549,68.645 257.424 C 67.951
        257.157,67.876 257.921,68.420 259.715 C 68.623 260.383,68.994 261.731,69.244 262.710 C
        70.600 268.016,70.425 267.464,73.025 274.580 C 81.121 296.731,98.585 319.981,118.540 335.174
        C 152.285 360.865,197.213 369.502,238.378 358.210 C 245.295 356.313,252.044 354.062,255.302
        352.566 C 256.776 351.889,258.079 351.335,258.197 351.335 C 258.315 351.335,261.203
        349.931,264.616 348.214 C 332.268 314.183,361.376 234.144,331.682 163.798 C 327.462
        153.800,319.642 140.332,313.771 132.949 C 312.997 131.976,312.097 130.837,311.771 130.417 C
        307.442 124.853,298.698 115.769,292.779 110.685 C 290.495 108.723,288.153 106.709,287.575
        106.211 C 286.365 105.166,273.515 96.142,273.237 96.142 C 273.135 96.142,270.770
        94.847,267.980 93.265 C 249.566 82.817,226.932 76.211,205.341 74.985 C 203.056
        74.855,200.475 74.687,199.604 74.611 C 198.734 74.534,197.107 74.608,195.988 74.774 M184.780
        92.582 C 184.780 92.908,184.952 93.442,185.163 93.769 C 185.504 94.296,185.547
        94.296,185.547 93.769 C 185.547 93.442,185.374 92.908,185.163 92.582 C 184.822
        92.054,184.780 92.054,184.780 92.582 M180.072 148.003 C 176.666 148.672,172.068
        151.955,172.119 153.682 C 172.126 153.914,172.526 153.571,173.008 152.918 C 174.483
        150.920,175.663 150.011,177.988 149.086 C 182.336 147.355,209.391 147.676,214.837 149.523 C
        215.381 149.708,216.627 150.097,217.606 150.389 C 227.384 153.300,234.124 162.685,234.766
        174.283 C 234.838 175.589,234.854 175.143,234.802 173.294 C 234.705 169.838,234.275
        167.209,233.488 165.260 C 229.339 154.990,222.336 149.948,209.713 148.142 C 205.447
        147.532,183.005 147.427,180.072 148.003 M170.778 158.713 C 170.027 165.898,170.510
        243.188,171.311 243.912 C 172.506 244.995,177.807 244.559,180.150 243.186 C 184.611
        240.572,185.163 238.248,185.163 222.086 L 185.163 208.902 193.552 208.902 C 208.262
        208.902,214.676 207.971,221.563 204.838 C 227.085 202.325,232.453 195.680,233.887 189.582 C
        234.126 188.566,234.477 187.326,234.668 186.826 C 234.859 186.326,234.981 184.546,234.940
        182.870 C 234.872 180.118,234.854 180.052,234.750 182.196 C 234.229 192.903,228.731
        201.318,219.800 205.077 C 214.274 207.403,211.528 207.769,197.824 208.001 C 189.270
        208.146,185.270 208.352,185.070 208.656 C 184.910 208.900,184.775 214.886,184.769 221.958 C
        184.754 240.954,183.190 244.115,173.806 244.115 C 170.673 244.115,170.867 247.216,170.999
        199.132 C 171.064 175.564,171.099 156.281,171.075 156.281 C 171.052 156.281,170.918
        157.375,170.778 158.713 M186.548 160.299 C 184.752 161.281,184.767 161.127,184.774 178.612 C
        184.777 187.764,184.931 195.491,185.117 195.784 C 185.669 196.656,207.165 196.217,210.089
        195.273 C 217.465 192.894,220.128 189.006,220.537 180.020 L 220.725 175.865 220.337 179.822
        C 219.035 193.110,215.415 195.479,196.241 195.587 L 185.361 195.648 185.258 178.731 L
        185.155 161.814 186.445 161.027 C 188.437 159.812,206.337 160.090,209.891 161.390 C 216.285
        163.729,219.483 167.771,220.094 174.283 L 220.243 175.865 220.309 174.045 C 220.504
        168.731,216.943 163.604,211.715 161.671 C 207.202 160.003,188.913 159.005,186.548 160.299
        M214.469 302.153 C 214.558 303.180,215.177 304.051,215.205 303.189 C 215.220 302.712,215.054
        302.212,214.837 302.077 C 214.619 301.943,214.454 301.977,214.469 302.153 M215.338 307.418 C
        215.342 310.425,215.381 310.603,215.706 309.100 C 215.929 308.071,215.928 306.766,215.702
        305.737 C 215.373 304.232,215.335 304.409,215.338 307.418 "
            stroke="none" fill="#07746c" fill-rule="evenodd"></path>
        <path id="path4"
            d="M192.087 33.856 C 148.446 36.976,113.776 54.690,88.378 86.845 C 26.909 164.664,60.880
        279.066,155.524 312.970 C 173.330 319.348,200.668 323.018,207.113 319.895 C 216.485
        315.354,218.210 303.099,210.401 296.528 C 207.625 294.192,206.274 293.885,196.394 293.345 C
        174.111 292.126,158.381 288.207,142.629 279.949 C 74.849 244.416,54.958 157.713,100.234
        95.153 C 150.144 26.190,253.526 24.609,307.267 91.988 C 314.767 101.392,320.039
        110.234,326.730 124.629 C 327.944 127.242,327.773 125.523,326.398 121.293 C 321.388
        105.881,306.057 83.327,291.621 70.132 C 264.778 45.594,225.930 31.436,192.087 33.856
        M204.946 34.433 C 217.059 35.125,227.407 36.862,236.202 39.681 C 237.181 39.995,239.318
        40.651,240.950 41.140 C 247.424 43.080,257.677 47.675,267.279 52.938 C 287.352
        63.942,308.707 86.001,318.892 106.252 C 319.871 108.199,320.806 109.852,320.969 109.924 C
        321.133 109.997,321.266 110.432,321.266 110.892 C 321.266 111.512,320.960 111.245,320.079
        109.856 C 319.426 108.827,318.892 107.813,318.892 107.602 C 318.892 107.392,318.714
        107.221,318.497 107.221 C 318.279 107.221,318.101 107.010,318.101 106.753 C 318.101
        106.001,312.291 97.551,308.225 92.389 C 281.695 58.704,240.691 39.901,198.220 41.945 C
        126.752 45.384,71.055 106.487,75.510 176.566 C 75.941 183.338,76.131 185.035,77.181 191.494
        C 82.110 221.806,100.236 251.189,125.420 269.691 C 130.915 273.728,142.936 281.306,143.845
        281.306 C 143.913 281.306,145.488 282.011,147.345 282.872 C 150.832 284.491,157.805
        287.251,160.237 287.975 C 171.905 291.451,184.473 293.463,196.835 293.835 C 201.327
        293.970,204.589 294.255,205.669 294.607 C 217.627 298.503,218.032 315.271,206.275 319.670 C
        202.916 320.927,195.820 320.743,182.987 319.065 C 136.407 312.976,94.579 282.501,72.646
        238.671 C 48.374 190.168,54.722 129.608,88.491 87.522 C 92.612 82.386,99.156 74.953,100.445
        73.945 C 101.016 73.497,102.463 72.208,103.660 71.079 C 116.755 58.726,133.472
        48.702,151.929 42.137 C 153.561 41.556,155.341 40.919,155.885 40.721 C 157.006
        40.313,166.828 37.925,170.129 37.258 C 171.325 37.017,173.195 36.640,174.283 36.420 C
        177.681 35.735,182.729 35.158,189.911 34.632 C 193.719 34.353,197.102 34.105,197.428 34.081
        C 197.755 34.057,201.137 34.215,204.946 34.433 M194.659 75.513 C 184.003 79.085,181.282
        92.647,189.810 99.681 C 192.780 102.131,194.683 102.540,204.748 102.891 C 295.066
        106.041,351.302 200.488,311.346 281.920 C 276.588 352.758,186.708 375.683,121.068 330.454 C
        100.369 316.191,85.126 297.443,73.759 272.268 C 72.270 268.969,72.099 269.719,73.414 273.781
        C 87.266 316.570,133.112 353.990,180.020 360.794 C 278.224 375.039,359.156 289.665,339.827
        192.216 C 326.797 126.522,268.932 77.473,201.994 75.380 C 198.504 75.271,195.203
        75.331,194.659 75.513 M210.089 76.361 C 217.769 77.312,220.181 77.687,225.519 78.757 C
        234.852 80.628,244.255 83.274,248.665 85.270 C 249.753 85.763,252.512 86.932,254.797 87.867
        C 264.301 91.760,280.203 101.199,286.388 106.620 C 286.966 107.126,288.773 108.645,290.406
        109.995 C 314.137 129.631,331.497 158.005,338.694 188.922 C 342.756 206.373,343.187
        227.554,339.857 246.093 C 335.553 270.053,325.609 291.497,309.594 311.350 C 298.404
        325.223,280.740 339.115,263.699 347.445 C 251.563 353.378,241.587 356.764,229.080 359.197 C
        227.883 359.430,226.014 359.804,224.926 360.029 C 208.156 363.490,182.876 362.071,163.996
        356.609 C 128.582 346.362,98.496 322.255,81.713 290.679 C 79.115 285.790,79.013
        284.729,81.525 288.705 C 83.071 291.154,87.231 297.459,88.911 299.901 C 101.496
        318.187,124.928 336.377,147.181 345.137 C 222.057 374.610,304.653 331.062,322.027 252.950 C
        326.883 231.119,325.038 203.389,317.438 183.979 C 316.715 182.131,316.123 180.488,316.123
        180.329 C 316.123 180.170,315.613 178.922,314.989 177.557 C 314.366 176.191,313.370
        174.006,312.776 172.700 C 294.469 132.428,252.447 104.542,206.963 102.480 C 195.880
        101.977,195.027 101.881,192.744 100.873 C 187.118 98.388,183.488 90.398,185.614 85.182 C
        186.869 82.105,187.306 81.370,188.841 79.760 C 192.693 75.718,198.018 74.866,210.089 76.361
        M180.460 148.400 C 179.505 148.588,178.615 148.855,178.481 148.995 C 178.348 149.135,179.041
        149.096,180.020 148.908 C 182.165 148.496,204.639 148.450,209.100 148.849 L 212.265 149.131
        208.902 148.586 C 205.079 147.967,183.388 147.825,180.460 148.400 M175.979 150.053 C 173.131
        151.777,171.177 155.395,171.418 158.498 L 171.569 160.435 171.640 158.184 C 171.679
        156.945,171.889 155.822,172.107 155.687 C 172.324 155.553,172.502 155.159,172.502 154.811 C
        172.502 153.790,174.444 151.539,176.390 150.305 C 178.503 148.965,178.142 148.743,175.979
        150.053 M212.661 149.359 C 212.878 149.434,214.392 149.895,216.024 150.383 C 226.855
        153.621,232.319 160.334,234.351 172.898 C 234.476 173.667,234.523 173.589,234.565 172.548 C
        234.646 170.550,233.362 165.841,231.910 162.811 C 229.110 156.966,223.563 152.151,217.606
        150.393 C 216.627 150.105,215.417 149.709,214.917 149.514 C 214.417 149.319,213.616
        149.173,213.137 149.190 C 212.657 149.208,212.443 149.283,212.661 149.359 M185.810 160.266 C
        185.237 160.717,184.782 161.296,184.799 161.552 C 184.820 161.871,184.894 161.859,185.032
        161.515 C 185.580 160.153,187.382 159.842,194.711 159.842 C 209.563 159.842,215.788
        161.770,218.408 167.183 C 218.887 168.173,219.361 168.901,219.461 168.801 C 220.380
        167.883,215.834 162.989,212.794 161.625 C 207.764 159.368,188.204 158.383,185.810 160.266
        M171.014 201.260 C 170.955 227.067,171.062 242.458,171.306 243.100 C 172.024 244.988,178.887
        244.102,181.341 241.804 C 184.455 238.888,184.773 236.995,184.677 221.958 L 184.595 209.100
        184.370 222.552 C 184.139 236.390,184.034 237.306,182.373 239.995 C 180.823 242.501,173.030
        245.129,171.619 243.620 C 171.568 243.566,171.432 224.827,171.317 201.978 L 171.109 160.435
        171.014 201.260 M184.553 179.031 C 184.552 187.953,184.604 191.659,184.668 187.267 C 184.732
        182.875,184.732 175.575,184.668 171.045 C 184.605 166.515,184.553 170.109,184.553 179.031
        M219.801 170.129 C 220.817 174.451,220.817 182.000,219.800 186.350 C 219.673 186.894,219.861
        186.627,220.219 185.757 C 220.724 184.529,220.870 182.842,220.870 178.239 C 220.870
        173.636,220.724 171.949,220.219 170.722 C 219.861 169.852,219.673 169.585,219.801 170.129
        M234.732 178.239 C 234.735 179.327,234.812 179.726,234.903 179.124 C 234.994 178.523,234.992
        177.633,234.898 177.146 C 234.804 176.659,234.729 177.151,234.732 178.239 M234.283 183.511 C
        234.054 188.583,231.514 194.594,227.504 199.556 C 223.127 204.971,214.400 207.327,197.468
        207.665 C 186.891 207.876,185.006 208.002,184.869 208.506 C 184.763 208.894,184.821
        208.946,185.034 208.656 C 185.258 208.353,189.304 208.146,197.824 208.001 C 216.579
        207.683,222.877 205.726,228.884 198.352 C 232.283 194.179,235.035 186.867,234.518 183.383 L
        234.342 182.196 234.283 183.511 M217.606 190.545 C 216.251 192.399,213.590 194.117,210.501
        195.133 C 207.218 196.214,185.738 196.764,185.117 195.784 C 184.859 195.378,184.778
        195.422,184.774 195.971 C 184.762 197.293,207.310 196.800,211.163 195.394 C 214.695
        194.105,219.603 190.176,218.738 189.331 C 218.659 189.255,218.150 189.801,217.606 190.545 "
            stroke="none" fill="#059484" fill-rule="evenodd"></path>
    </g>
</svg>